HIERARCHY
ROOT Hips
{
	OFFSET 0.000000 0.000000 0.000000
	CHANNELS 6 Xposition Yposition Zposition Zrotation Yrotation Xrotation 
	JOINT LHipJoint
	{
		OFFSET 0.000000 0.000000 0.000000
		CHANNELS 3 Zrotation Yrotation Xrotation
		JOINT LeftUpLeg
		{
			OFFSET 1.363060 -1.794630 0.839290
			CHANNELS 3 Zrotation Yrotation Xrotation
			JOINT LeftLeg
			{
				OFFSET 2.448110 -6.726130 0.000000
				CHANNELS 3 Zrotation Yrotation Xrotation
				JOINT LeftFoot
				{
					OFFSET 2.562200 -7.039590 0.000000
					CHANNELS 3 Zrotation Yrotation Xrotation
					JOINT LeftToeBase
					{
						OFFSET 0.157640 -0.433110 2.322550
						CHANNELS 3 Zrotation Yrotation Xrotation
						End Site
						{
							OFFSET 0.000000 0.000000 0.000000
						}
					}
				}
			}
		}
	}
	JOINT RHipJoint
	{
		OFFSET 0.000000 0.000000 0.000000
		CHANNELS 3 Zrotation Yrotation Xrotation
		JOINT RightUpLeg
		{
			OFFSET -1.305520 -1.794630 0.839290
			CHANNELS 3 Zrotation Yrotation Xrotation
			JOINT RightLeg
			{
				OFFSET -2.542530 -6.985550 0.000000
				CHANNELS 3 Zrotation Yrotation Xrotation
				JOINT RightFoot
				{
					OFFSET -2.568260 -7.056230 0.000000
					CHANNELS 3 Zrotation Yrotation Xrotation
					JOINT RightToeBase
					{
						OFFSET -0.164730 -0.452590 2.363150
						CHANNELS 3 Zrotation Yrotation Xrotation
						End Site
						{
							OFFSET 0.000000 0.000000 0.000000
						}
					}
				}
			}
		}
	}
}
MOTION
Frames: 28
Frame Time: 0.008333
7.361665 20.119779 2.144443 33.232204 -86.709202 -11.347681 -11.728569 5.081985 3.402050 -2.041205 4.097891 -6.353665 0.172858 0.481432 11.348766 2.284814 8.868820 42.261574 5.742100 -0.000001 -61.012500 11.408952 -4.523428 0.456307 0.989007 -14.081600 -2.342491 0.865056 -0.825986 7.096520 -0.856294 10.112747 46.305781 8.281900 0.000000 -76.898500
7.123641 20.295624 2.129516 33.246840 -86.824633 -11.623017 -11.747901 5.026080 3.249431 -2.118241 4.770873 -6.733472 0.134328 0.501201 11.919492 2.248316 8.901963 41.372919 5.683800 -0.000000 -61.522799 11.409559 -4.481988 0.327744 1.010012 -14.654676 -2.691206 0.916600 -0.850045 7.459538 -0.811661 10.129234 45.554975 8.207700 -0.000000 -77.468300
6.887830 20.462535 2.115181 32.907600 -86.907891 -11.425944 -11.780475 4.954105 3.102968 -2.206311 5.464424 -7.322659 0.082174 0.516152 12.407237 2.202847 8.589799 40.763661 5.399900 0.000000 -62.290200 11.409966 -4.434826 0.203109 1.103165 -15.270249 -3.168759 0.994648 -0.858234 7.565652 -0.761292 10.176219 44.907698 8.162199 0.000000 -78.278500
6.653871 20.621656 2.101205 32.490353 -86.957064 -11.074432 -11.813492 4.870065 2.966650 -2.330579 6.056487 -7.960626 0.022776 0.526843 12.663733 2.155576 8.083806 40.478651 5.011700 0.000000 -62.845600 11.412662 -4.376198 0.065824 1.227875 -15.913401 -3.672030 1.096755 -0.850920 7.359394 -0.705638 10.250692 44.357243 8.143000 0.000001 -78.794900
6.421187 20.773213 2.087296 32.115746 -86.966221 -10.698372 -11.841739 4.776741 2.846234 -2.501417 6.517130 -8.625585 -0.042196 0.532442 12.676783 2.108426 7.455334 40.480276 4.565699 0.000000 -63.157200 11.419557 -4.304155 -0.083696 1.372368 -16.580183 -4.199358 1.220077 -0.828556 6.876722 -0.644480 10.310116 43.845692 8.111500 -0.000000 -78.868200
6.189599 20.917487 2.073885 31.423354 -86.939253 -9.913147 -11.870036 4.666663 2.743760 -2.697789 6.846399 -9.375784 -0.109599 0.531575 12.501928 2.063071 6.759032 40.689057 4.089400 -0.000000 -63.471700 11.418230 -4.223870 -0.219496 1.597418 -17.145192 -4.756347 1.355810 -0.786569 6.083977 -0.588234 10.135267 43.425706 7.910500 0.000000 -79.266000
5.958552 21.053707 2.060632 30.702865 -86.875956 -9.035122 -11.889875 4.545634 2.661889 -2.934822 7.013684 -10.152435 -0.178043 0.524731 12.124222 2.020118 6.105197 41.017015 3.653401 0.000000 -63.557100 11.413090 -4.132278 -0.347284 1.866904 -17.625753 -5.334098 1.501154 -0.728126 5.070261 -0.532152 9.749130 42.975854 7.546200 -0.000000 -79.354899
5.728183 21.181399 2.047358 30.079748 -86.776783 -8.197608 -11.897565 4.414989 2.599296 -3.216901 7.023503 -10.958168 -0.247390 0.512629 11.589100 1.978170 5.570193 41.355708 3.305100 -0.000000 -63.351300 11.404895 -4.026988 -0.464938 2.169107 -18.015311 -5.952757 1.651476 -0.655232 3.925702 -0.475344 9.137076 42.414993 7.002499 0.000000 -79.029000
5.498660 21.299771 2.034228 29.482983 -86.649173 -7.333256 -11.894139 4.273018 2.551147 -3.532586 6.896925 -11.804098 -0.316533 0.495799 10.945947 1.936807 5.215603 41.619709 3.085500 -0.000000 -62.966700 11.388828 -3.909360 -0.562559 2.513071 -18.264096 -6.612664 1.799841 -0.567548 2.690930 -0.422266 8.249680 41.738252 6.248600 0.000000 -78.505700
5.270002 21.407881 2.021276 28.909371 -86.500960 -6.444333 -11.879993 4.119679 2.513012 -3.873816 6.653397 -12.688365 -0.384546 0.474407 10.229710 1.896324 5.093111 41.751638 3.031900 -0.000000 -62.529301 11.362645 -3.780237 -0.634382 2.894148 -18.344641 -7.311441 1.940296 -0.465538 1.412319 -0.376602 7.094192 40.943283 5.298300 -0.000000 -77.841700
5.042606 21.504392 2.008374 28.495799 -86.333381 -5.692658 -11.854399 3.959492 2.476546 -4.245770 6.354884 -13.614504 -0.455694 0.450133 9.504433 1.852494 5.174978 41.683493 3.122100 -0.000000 -61.903400 11.331493 -3.636518 -0.692848 3.279126 -18.342669 -8.083383 2.073617 -0.355801 0.224493 -0.333754 5.838268 39.967518 4.277800 -0.000000 -76.901200
4.816392 21.589341 1.995854 28.060617 -86.162926 -4.889888 -11.821567 3.788494 2.439588 -4.627185 5.999725 -14.573099 -0.525722 0.421122 8.764608 1.811022 5.488711 41.453392 3.377500 -0.000000 -61.453601 11.288515 -3.483757 -0.723430 3.684979 -18.169790 -8.890890 2.191043 -0.235985 -0.924638 -0.304976 4.437830 38.935328 3.174400 0.000000 -76.011600
4.591442 21.661749 1.983595 27.690824 -85.991834 -4.151458 -11.783270 3.612677 2.390948 -5.024336 5.679789 -15.572258 -0.602393 0.389930 8.078768 1.764692 5.904023 41.017956 3.697500 0.000000 -60.856500 11.239901 -3.321551 -0.745519 4.083085 -17.952269 -9.767398 2.299079 -0.115881 -1.906183 -0.280695 3.121500 37.800984 2.152699 -0.000000 -74.970800
4.367967 21.721641 1.971603 27.354244 -85.828793 -3.463329 -11.742421 3.433757 2.323084 -5.436227 5.444131 -16.606683 -0.688658 0.357803 7.472065 1.711691 6.324224 40.404545 4.009100 -0.000001 -60.101200 11.186848 -3.152821 -0.767813 4.470203 -17.733882 -10.708441 2.400008 -0.001645 -2.691648 -0.258029 1.996645 36.622583 1.291100 -0.000000 -73.890800
4.145482 21.769080 1.960152 26.945550 -85.687446 -2.700831 -11.700902 3.248918 2.245313 -5.846505 5.238427 -17.658881 -0.776727 0.321935 6.893447 1.661656 6.776113 39.746674 4.337100 0.000000 -59.749800 11.126335 -2.983730 -0.777594 4.863241 -17.437806 -11.682427 2.488026 0.108324 -3.372615 -0.246218 0.984714 35.564807 0.537700 -0.000000 -73.180700
3.924072 21.804314 1.949116 26.477107 -85.569121 -1.891277 -11.660527 3.062021 2.152344 -6.260435 5.114248 -18.740873 -0.871508 0.285506 6.382560 1.608458 7.131900 39.058275 4.588900 0.000000 -59.582700 11.061937 -2.816522 -0.787728 5.259366 -17.143632 -12.706302 2.571044 0.206880 -3.904367 -0.235313 0.200789 34.636268 -0.037800 -0.000000 -72.778799
3.703966 21.827812 1.938159 26.049047 -85.473354 -1.166639 -11.621419 2.879088 2.034579 -6.692409 5.123598 -19.833862 -0.979899 0.253077 5.966134 1.543249 7.261519 38.337490 4.672400 0.000000 -59.170600 10.999307 -2.650539 -0.821835 5.647424 -16.961625 -13.780748 2.659610 0.285116 -4.233392 -0.210014 -0.206585 33.807919 -0.346500 0.000000 -72.492500
3.484336 21.839916 1.927686 25.522708 -85.404643 -0.339159 -11.583274 2.695610 1.917875 -7.115853 5.140092 -20.944507 -1.088188 0.220290 5.568501 1.479110 7.283128 37.735354 4.685899 -0.000000 -59.262800 10.933483 -2.490941 -0.853778 6.056133 -16.769548 -14.896414 2.747409 0.351517 -4.489995 -0.182115 -0.421425 33.213882 -0.518399 0.000000 -72.682000
3.265703 21.841048 1.917259 25.011525 -85.356970 0.449775 -11.545323 2.516529 1.791160 -7.548355 5.217526 -22.068541 -1.204442 0.192249 5.231709 1.405221 7.081045 37.207347 4.547200 -0.000000 -59.418300 10.869211 -2.334418 -0.905126 6.475457 -16.666835 -16.060344 2.844062 0.399760 -4.619368 -0.137679 -0.325403 32.779392 -0.482800 0.000000 -73.116400
3.047527 21.831537 1.907082 24.466920 -85.327856 1.279202 -11.505836 2.340096 1.674065 -7.971557 5.262675 -23.207106 -1.320390 0.165741 4.902070 1.328625 6.744706 36.819426 4.326500 0.000000 -59.886700 10.803736 -2.181550 -0.961490 6.917931 -16.591243 -17.276682 2.947590 0.436219 -4.687016 -0.081561 -0.016952 32.523015 -0.307600 0.000000 -73.813000
2.830121 21.811606 1.896582 24.013640 -85.313552 1.987001 -11.464249 2.171130 1.550114 -8.408514 5.348911 -24.343159 -1.446415 0.145253 4.617859 1.237496 6.168278 36.485194 3.945701 -0.000000 -60.193900 10.740231 -2.029108 -1.040176 7.370044 -16.616556 -18.528361 3.064279 0.457246 -4.654119 -0.003523 0.589131 32.340561 0.059500 0.000000 -74.505700
2.613453 21.781124 1.886731 23.435148 -85.306592 2.896160 -11.416722 1.997503 1.465732 -8.805493 5.254406 -25.542766 -1.559700 0.120553 4.295326 1.154342 5.620989 36.321279 3.599300 -0.000000 -61.018799 10.668702 -1.877399 -1.095718 7.862389 -16.541293 -19.874351 3.181775 0.478220 -4.633857 0.074293 1.206761 32.306381 0.435000 0.000001 -75.446100
2.397516 21.739943 1.876580 22.938312 -85.308809 3.721119 -11.363898 1.828354 1.388120 -9.200983 5.128927 -26.747846 -1.678038 0.097516 3.980723 1.061801 4.947678 36.179173 3.170100 -0.000000 -61.664000 10.594775 -1.723899 -1.156087 8.361686 -16.482955 -21.258509 3.307483 0.492395 -4.560423 0.166736 1.982130 32.262705 0.910800 -0.000000 -76.234400
2.182534 21.687810 1.865887 22.539983 -85.319180 4.438222 -11.305217 1.663616 1.308654 -9.610444 5.010582 -27.969854 -1.806255 0.077120 3.704202 0.955855 4.134776 35.981972 2.647000 -0.000000 -61.843100 10.517294 -1.568368 -1.218673 8.861982 -16.429121 -22.674233 3.440231 0.500696 -4.424991 0.273340 2.883012 32.139015 1.461300 -0.000001 -76.715300
1.968610 21.624314 1.855580 22.056711 -85.335351 5.321665 -11.237900 1.492158 1.268068 -9.967784 4.696773 -29.243817 -1.919830 0.047873 3.365931 0.862757 3.494945 35.846353 2.248000 0.000001 -62.472200 10.428995 -1.411010 -1.246089 9.368652 -16.200170 -24.162529 3.566051 0.515485 -4.320013 0.372531 3.643176 32.019348 1.918600 0.000001 -77.298300
1.755343 21.549208 1.844581 21.671406 -85.362637 6.098499 -11.164115 1.325031 1.222414 -10.342955 4.406993 -30.533081 -2.043084 0.018486 3.065993 0.760060 2.812354 35.581740 1.820600 -0.000000 -62.492300 10.335742 -1.253935 -1.264212 9.855423 -15.925851 -25.666511 3.693079 0.527169 -4.154538 0.480424 4.424107 31.742894 2.375400 0.000000 -77.465900
1.543432 21.461931 1.833574 21.267486 -85.401281 6.953278 -11.082280 1.151833 1.203436 -10.663385 3.957075 -31.834719 -2.149841 -0.021676 2.697068 0.676301 2.399713 35.329354 1.579000 0.000000 -62.952800 10.234256 -1.094421 -1.253017 10.310376 -15.477310 -27.207174 3.807707 0.543065 -3.998782 0.577852 5.020312 31.415294 2.706500 0.000000 -77.715600
1.332536 21.362401 1.821935 20.842851 -85.452677 7.818674 -10.996185 0.981775 1.164819 -11.021749 3.603427 -33.195039 -2.267870 -0.058504 2.442987 0.584374 1.964589 34.884494 1.323300 0.000001 -62.721001 10.126729 -0.940598 -1.225319 10.736738 -14.957705 -28.758057 3.918578 0.555186 -3.772244 0.676645 5.551003 30.935727 2.978800 0.000000 -77.647800
